<svg xmlns="http://www.w3.org/2000/svg" viewBox="0 0 46 61"><path fill="none" stroke="#fff" stroke-linecap="round" stroke-linejoin="round" stroke-miterlimit="10" stroke-width="3" d="M1 1h44v59H1z"/><path fill="none" stroke="#fff" stroke-miterlimit="10" stroke-width="2" d="M7 29h6v5H7z"/><path fill="none" stroke="#2fc08a" stroke-miterlimit="10" stroke-width="2" d="M39 17v6H7V7h22m4 0h6v6"/><path fill="none" stroke="#fff" stroke-miterlimit="10" stroke-width="2" d="M20 29h6v5h-6zm13 0h6v5h-6zM7 39h6v5H7zm13 0h6v5h-6zm13 0h6v5h-6zM7 49h6v5H7zm13 0h6v5h-6zm13 0h6v5h-6z"/><path fill="none" stroke="#2fc08a" stroke-miterlimit="10" stroke-width="2" d="M39 7l-8 8-4-4-7 7-4-4-5 5"/></svg>
