<svg viewBox="0 0 36 36" xmlns="http://www.w3.org/2000/svg"><g fill="none" fill-rule="evenodd"><path stroke="#2FC08A" stroke-width="2" d="M11 13l-4.023 4L5 15"/><path d="M14 11h18-18zm0 3h18-18zm0 4h8-8z" stroke="#2FC08A"/><path stroke="#2FC08A" stroke-width="2" d="M11 23l-4.023 4L5 25"/><path d="M14 22h18m-18 3h18m-18 3h8" stroke="#2FC08A"/><path d="M34.404 35H1.596A.602.602 0 0 1 1 34.388V4.612c0-.34.265-.612.596-.612h32.808c.33 0 .596.272.596.612v29.776c0 .34-.265.612-.596.612zM8 0v8-8zM29 0v8-8z" stroke="#FFF"/></g></svg>
